<mxfile host="app.diagrams.net" modified="2024-04-07T22:54:18.068Z" agent="Mozilla/5.0 (Windows NT 10.0; Win64; x64) AppleWebKit/537.36 (KHTML, like Gecko) Chrome/123.0.0.0 Safari/537.36" etag="b4Y3dla0MvBtkfamTQzU" version="24.0.7" type="device">
  <diagram name="Page-1" id="a7lVqWYIaiDHgcnb2pZv">
    <mxGraphModel dx="2193" dy="555" grid="1" gridSize="10" guides="1" tooltips="1" connect="1" arrows="1" fold="1" page="1" pageScale="1" pageWidth="850" pageHeight="1100" math="0" shadow="0">
      <root>
        <mxCell id="0" />
        <mxCell id="1" parent="0" />
        <mxCell id="dYFEZIhv_LDBy1Jv6Vbe-52" value="" style="rounded=0;whiteSpace=wrap;html=1;strokeColor=#FFD966;fillColor=#FFD966;" vertex="1" parent="1">
          <mxGeometry x="-810" y="10" width="695" height="540" as="geometry" />
        </mxCell>
        <mxCell id="dYFEZIhv_LDBy1Jv6Vbe-53" value="config" style="shape=folder;fontStyle=1;spacingTop=10;tabWidth=40;tabHeight=14;tabPosition=left;html=1;whiteSpace=wrap;" vertex="1" parent="1">
          <mxGeometry x="-770" y="54" width="70" height="50" as="geometry" />
        </mxCell>
        <mxCell id="dYFEZIhv_LDBy1Jv6Vbe-54" value="repository" style="shape=folder;fontStyle=1;spacingTop=10;tabWidth=40;tabHeight=14;tabPosition=left;html=1;whiteSpace=wrap;" vertex="1" parent="1">
          <mxGeometry x="-282" y="215" width="70" height="50" as="geometry" />
        </mxCell>
        <mxCell id="dYFEZIhv_LDBy1Jv6Vbe-55" value="controller" style="shape=folder;fontStyle=1;spacingTop=10;tabWidth=40;tabHeight=14;tabPosition=left;html=1;whiteSpace=wrap;" vertex="1" parent="1">
          <mxGeometry x="-578" y="454" width="70" height="50" as="geometry" />
        </mxCell>
        <mxCell id="dYFEZIhv_LDBy1Jv6Vbe-56" value="dto" style="shape=folder;fontStyle=1;spacingTop=10;tabWidth=40;tabHeight=14;tabPosition=left;html=1;whiteSpace=wrap;" vertex="1" parent="1">
          <mxGeometry x="-770" y="324" width="70" height="50" as="geometry" />
        </mxCell>
        <mxCell id="dYFEZIhv_LDBy1Jv6Vbe-57" value="mapper" style="shape=folder;fontStyle=1;spacingTop=10;tabWidth=40;tabHeight=14;tabPosition=left;html=1;whiteSpace=wrap;" vertex="1" parent="1">
          <mxGeometry x="-593" y="324" width="70" height="50" as="geometry" />
        </mxCell>
        <mxCell id="dYFEZIhv_LDBy1Jv6Vbe-58" value="" style="html=1;verticalAlign=bottom;endArrow=open;dashed=1;endSize=8;curved=0;rounded=0;exitX=0;exitY=0;exitDx=0;exitDy=32;exitPerimeter=0;entryX=0;entryY=0;entryDx=70;entryDy=32;entryPerimeter=0;" edge="1" parent="1" source="dYFEZIhv_LDBy1Jv6Vbe-57" target="dYFEZIhv_LDBy1Jv6Vbe-56">
          <mxGeometry relative="1" as="geometry">
            <mxPoint x="-260" y="234" as="sourcePoint" />
            <mxPoint x="-340" y="234" as="targetPoint" />
          </mxGeometry>
        </mxCell>
        <mxCell id="dYFEZIhv_LDBy1Jv6Vbe-59" value="" style="html=1;verticalAlign=bottom;endArrow=open;dashed=1;endSize=8;curved=0;rounded=0;exitX=0;exitY=0;exitDx=40;exitDy=0;exitPerimeter=0;" edge="1" parent="1" source="dYFEZIhv_LDBy1Jv6Vbe-55">
          <mxGeometry relative="1" as="geometry">
            <mxPoint x="-393" y="334" as="sourcePoint" />
            <mxPoint x="-538" y="374" as="targetPoint" />
          </mxGeometry>
        </mxCell>
        <mxCell id="dYFEZIhv_LDBy1Jv6Vbe-60" value="service&lt;div&gt;&lt;br&gt;&lt;/div&gt;&lt;div&gt;&lt;br&gt;&lt;/div&gt;&lt;div&gt;&lt;br&gt;&lt;/div&gt;&lt;div&gt;&lt;br&gt;&lt;/div&gt;&lt;div&gt;&lt;br&gt;&lt;/div&gt;&lt;div&gt;&lt;br&gt;&lt;/div&gt;" style="shape=folder;fontStyle=1;tabWidth=80;tabHeight=30;tabPosition=left;html=1;boundedLbl=1;whiteSpace=wrap;" vertex="1" parent="1">
          <mxGeometry x="-436" y="356" width="230" height="150" as="geometry" />
        </mxCell>
        <mxCell id="dYFEZIhv_LDBy1Jv6Vbe-61" value="impl" style="shape=folder;fontStyle=1;spacingTop=10;tabWidth=40;tabHeight=14;tabPosition=left;html=1;whiteSpace=wrap;" vertex="1" parent="1">
          <mxGeometry x="-416" y="436" width="70" height="50" as="geometry" />
        </mxCell>
        <mxCell id="dYFEZIhv_LDBy1Jv6Vbe-62" value="" style="html=1;verticalAlign=bottom;endArrow=open;dashed=1;endSize=8;curved=0;rounded=0;exitX=0;exitY=0;exitDx=70;exitDy=23;exitPerimeter=0;entryX=0;entryY=0;entryDx=0;entryDy=120;entryPerimeter=0;" edge="1" parent="1" source="dYFEZIhv_LDBy1Jv6Vbe-55" target="dYFEZIhv_LDBy1Jv6Vbe-60">
          <mxGeometry relative="1" as="geometry">
            <mxPoint x="-243" y="244" as="sourcePoint" />
            <mxPoint x="-503" y="336" as="targetPoint" />
          </mxGeometry>
        </mxCell>
        <mxCell id="dYFEZIhv_LDBy1Jv6Vbe-63" value="" style="html=1;verticalAlign=bottom;endArrow=open;dashed=1;endSize=8;curved=0;rounded=0;entryX=0.5;entryY=1;entryDx=0;entryDy=0;entryPerimeter=0;" edge="1" parent="1">
          <mxGeometry relative="1" as="geometry">
            <mxPoint x="-580" y="484" as="sourcePoint" />
            <mxPoint x="-735" y="374" as="targetPoint" />
            <Array as="points">
              <mxPoint x="-735" y="484" />
            </Array>
          </mxGeometry>
        </mxCell>
        <mxCell id="dYFEZIhv_LDBy1Jv6Vbe-64" value="model" style="shape=folder;fontStyle=1;spacingTop=10;tabWidth=40;tabHeight=14;tabPosition=left;html=1;whiteSpace=wrap;" vertex="1" parent="1">
          <mxGeometry x="-578" y="124" width="70" height="50" as="geometry" />
        </mxCell>
        <mxCell id="dYFEZIhv_LDBy1Jv6Vbe-65" value="" style="html=1;verticalAlign=bottom;endArrow=open;dashed=1;endSize=8;curved=0;rounded=0;exitX=0;exitY=0;exitDx=70;exitDy=32;exitPerimeter=0;entryX=0.5;entryY=1;entryDx=0;entryDy=0;entryPerimeter=0;" edge="1" parent="1" source="dYFEZIhv_LDBy1Jv6Vbe-61" target="dYFEZIhv_LDBy1Jv6Vbe-54">
          <mxGeometry relative="1" as="geometry">
            <mxPoint x="-96" y="225" as="sourcePoint" />
            <mxPoint x="-356" y="317" as="targetPoint" />
            <Array as="points">
              <mxPoint x="-246" y="468" />
            </Array>
          </mxGeometry>
        </mxCell>
        <mxCell id="dYFEZIhv_LDBy1Jv6Vbe-66" value="" style="html=1;verticalAlign=bottom;endArrow=open;dashed=1;endSize=8;curved=0;rounded=0;exitX=0;exitY=0;exitDx=20;exitDy=0;exitPerimeter=0;entryX=0;entryY=0;entryDx=70;entryDy=23;entryPerimeter=0;" edge="1" parent="1" source="dYFEZIhv_LDBy1Jv6Vbe-54" target="dYFEZIhv_LDBy1Jv6Vbe-64">
          <mxGeometry relative="1" as="geometry">
            <mxPoint x="-140" y="144" as="sourcePoint" />
            <mxPoint x="-527.5" y="174" as="targetPoint" />
            <Array as="points">
              <mxPoint x="-260" y="147" />
            </Array>
          </mxGeometry>
        </mxCell>
        <mxCell id="dYFEZIhv_LDBy1Jv6Vbe-67" value="" style="html=1;verticalAlign=bottom;endArrow=open;dashed=1;endSize=8;curved=0;rounded=0;exitX=0.5;exitY=1;exitDx=0;exitDy=0;exitPerimeter=0;" edge="1" parent="1" source="dYFEZIhv_LDBy1Jv6Vbe-53" target="dYFEZIhv_LDBy1Jv6Vbe-56">
          <mxGeometry relative="1" as="geometry">
            <mxPoint x="-290" y="564" as="sourcePoint" />
            <mxPoint x="-550" y="656" as="targetPoint" />
          </mxGeometry>
        </mxCell>
        <mxCell id="dYFEZIhv_LDBy1Jv6Vbe-68" value="" style="html=1;verticalAlign=bottom;endArrow=open;dashed=1;endSize=8;curved=0;rounded=0;exitX=0;exitY=0;exitDx=40;exitDy=0;exitPerimeter=0;entryX=0.5;entryY=1;entryDx=0;entryDy=0;entryPerimeter=0;" edge="1" parent="1" target="dYFEZIhv_LDBy1Jv6Vbe-64">
          <mxGeometry relative="1" as="geometry">
            <mxPoint x="-543.56" y="334" as="sourcePoint" />
            <mxPoint x="-543.56" y="254" as="targetPoint" />
          </mxGeometry>
        </mxCell>
        <mxCell id="dYFEZIhv_LDBy1Jv6Vbe-86" value="" style="rounded=0;whiteSpace=wrap;html=1;strokeColor=#FFCCE6;fillColor=#FFCCE6;" vertex="1" parent="1">
          <mxGeometry x="-746.25" y="590" width="376.5" height="260" as="geometry" />
        </mxCell>
        <mxCell id="dYFEZIhv_LDBy1Jv6Vbe-87" value="service" style="shape=folder;fontStyle=1;spacingTop=10;tabWidth=40;tabHeight=14;tabPosition=left;html=1;whiteSpace=wrap;" vertex="1" parent="1">
          <mxGeometry x="-572" y="620" width="70" height="50" as="geometry" />
        </mxCell>
        <mxCell id="dYFEZIhv_LDBy1Jv6Vbe-88" value="model" style="shape=folder;fontStyle=1;spacingTop=10;tabWidth=40;tabHeight=14;tabPosition=left;html=1;whiteSpace=wrap;" vertex="1" parent="1">
          <mxGeometry x="-710" y="771" width="70" height="50" as="geometry" />
        </mxCell>
        <mxCell id="dYFEZIhv_LDBy1Jv6Vbe-89" value="" style="html=1;verticalAlign=bottom;endArrow=open;dashed=1;endSize=8;curved=0;rounded=0;entryX=0.75;entryY=1;entryDx=0;entryDy=0;entryPerimeter=0;exitX=0.473;exitY=0.003;exitDx=0;exitDy=0;exitPerimeter=0;" edge="1" parent="1" source="dYFEZIhv_LDBy1Jv6Vbe-87">
          <mxGeometry relative="1" as="geometry">
            <mxPoint x="-538" y="610" as="sourcePoint" />
            <mxPoint x="-538" y="504" as="targetPoint" />
          </mxGeometry>
        </mxCell>
        <mxCell id="dYFEZIhv_LDBy1Jv6Vbe-90" value="" style="html=1;verticalAlign=bottom;endArrow=open;dashed=1;endSize=8;curved=0;rounded=0;entryX=0;entryY=0;entryDx=70;entryDy=32;entryPerimeter=0;exitX=0;exitY=0;exitDx=0;exitDy=32;exitPerimeter=0;" edge="1" parent="1" source="dYFEZIhv_LDBy1Jv6Vbe-92" target="dYFEZIhv_LDBy1Jv6Vbe-88">
          <mxGeometry relative="1" as="geometry">
            <mxPoint x="-493" y="796" as="sourcePoint" />
            <mxPoint x="-492" y="680" as="targetPoint" />
          </mxGeometry>
        </mxCell>
        <mxCell id="dYFEZIhv_LDBy1Jv6Vbe-92" value="component" style="shape=folder;fontStyle=1;spacingTop=10;tabWidth=40;tabHeight=14;tabPosition=left;html=1;whiteSpace=wrap;" vertex="1" parent="1">
          <mxGeometry x="-575" y="770" width="70" height="50" as="geometry" />
        </mxCell>
        <mxCell id="dYFEZIhv_LDBy1Jv6Vbe-93" value="" style="html=1;verticalAlign=bottom;endArrow=open;dashed=1;endSize=8;curved=0;rounded=0;entryX=0.5;entryY=1;entryDx=0;entryDy=0;entryPerimeter=0;exitX=0;exitY=0;exitDx=40;exitDy=0;exitPerimeter=0;" edge="1" parent="1" source="dYFEZIhv_LDBy1Jv6Vbe-92" target="dYFEZIhv_LDBy1Jv6Vbe-87">
          <mxGeometry relative="1" as="geometry">
            <mxPoint x="-522.05" y="786" as="sourcePoint" />
            <mxPoint x="-521.05" y="670" as="targetPoint" />
          </mxGeometry>
        </mxCell>
        <mxCell id="dYFEZIhv_LDBy1Jv6Vbe-94" value="" style="html=1;verticalAlign=bottom;endArrow=open;dashed=1;endSize=8;curved=0;rounded=0;entryX=0;entryY=0;entryDx=55;entryDy=14;entryPerimeter=0;exitX=0;exitY=0;exitDx=0;exitDy=32;exitPerimeter=0;" edge="1" parent="1" source="dYFEZIhv_LDBy1Jv6Vbe-87" target="dYFEZIhv_LDBy1Jv6Vbe-88">
          <mxGeometry relative="1" as="geometry">
            <mxPoint x="-593" y="640" as="sourcePoint" />
            <mxPoint x="-613" y="580" as="targetPoint" />
            <Array as="points">
              <mxPoint x="-655" y="652" />
            </Array>
          </mxGeometry>
        </mxCell>
      </root>
    </mxGraphModel>
  </diagram>
</mxfile>
